<?xml version="1.0" standalone="no"?>
<!DOCTYPE svg PUBLIC "-//W3C//DTD SVG 20010904//EN"
 "http://www.w3.org/TR/2001/REC-SVG-20010904/DTD/svg10.dtd">
<svg version="1.0" xmlns="http://www.w3.org/2000/svg"
 width="225.000000pt" height="225.000000pt" viewBox="0 0 225.000000 225.000000"
 preserveAspectRatio="xMidYMid meet">
<metadata>
Created by potrace 1.14, written by Peter Selinger 2001-2017
</metadata>
<g transform="translate(0.000000,225.000000) scale(0.100000,-0.100000)"
fill="#000000" stroke="none">
<path d="M990 2240 c-248 -23 -471 -130 -661 -319 -145 -145 -231 -292 -285
-491 -28 -100 -29 -115 -29 -310 0 -198 1 -208 28 -295 73 -231 145 -354 286
-496 242 -242 545 -349 902 -320 277 23 493 123 690 320 157 157 252 327 295
526 69 324 13 649 -157 901 -70 104 -223 257 -291 291 -29 14 -56 32 -60 38
-4 7 -37 23 -73 36 -36 12 -73 30 -83 39 -65 60 -347 100 -562 80z m460 -820
c0 -5 -4 -10 -10 -10 -5 0 -10 5 -10 10 0 6 5 10 10 10 6 0 10 -4 10 -10z
m497 -302 c-3 -7 -5 -2 -5 12 0 14 2 19 5 13 2 -7 2 -19 0 -25z m-562 -308 c6
-51 5 -54 -10 -39 -13 13 -16 26 -10 59 4 23 9 40 10 38 2 -2 7 -28 10 -58z"/>
</g>
</svg>
